<mxfile host="app.diagrams.net" agent="Mozilla/5.0 (X11; Linux x86_64) AppleWebKit/537.36 (KHTML, like Gecko) Chrome/130.0.0.0 Safari/537.36" version="24.8.2">
  <diagram name="Page-1" id="7_OmBLVQMOletc--9nq8">
    <mxGraphModel dx="1187" dy="674" grid="1" gridSize="10" guides="1" tooltips="1" connect="1" arrows="1" fold="1" page="1" pageScale="1" pageWidth="850" pageHeight="1100" math="0" shadow="0">
      <root>
        <mxCell id="0" />
        <mxCell id="1" parent="0" />
        <mxCell id="v2azdQqQb7HXVZhRQlR6-5" value="&lt;p style=&quot;margin:0px;margin-top:4px;text-align:center;&quot;&gt;&lt;b&gt;Agent&lt;/b&gt;&lt;/p&gt;&lt;hr size=&quot;1&quot; style=&quot;border-style:solid;&quot;&gt;&lt;p style=&quot;margin:0px;margin-left:4px;&quot;&gt;+ self.llm&lt;/p&gt;&lt;hr size=&quot;1&quot; style=&quot;border-style:solid;&quot;&gt;&lt;p style=&quot;margin:0px;margin-left:4px;&quot;&gt;+ run()&lt;/p&gt;&lt;p style=&quot;margin:0px;margin-left:4px;&quot;&gt;&lt;br&gt;&lt;/p&gt;&lt;p style=&quot;margin:0px;margin-left:4px;&quot;&gt;+ _run()&lt;/p&gt;&lt;p style=&quot;margin:0px;margin-left:4px;&quot;&gt;&lt;br&gt;&lt;/p&gt;&lt;p style=&quot;margin:0px;margin-left:4px;&quot;&gt;+ _call_llm()&lt;/p&gt;" style="verticalAlign=top;align=left;overflow=fill;html=1;whiteSpace=wrap;" vertex="1" parent="1">
          <mxGeometry x="360" y="260" width="160" height="160" as="geometry" />
        </mxCell>
        <mxCell id="v2azdQqQb7HXVZhRQlR6-9" style="edgeStyle=orthogonalEdgeStyle;rounded=0;orthogonalLoop=1;jettySize=auto;html=1;exitX=1;exitY=0.5;exitDx=0;exitDy=0;" edge="1" parent="1" source="v2azdQqQb7HXVZhRQlR6-6">
          <mxGeometry relative="1" as="geometry">
            <mxPoint x="340" y="295" as="targetPoint" />
          </mxGeometry>
        </mxCell>
        <mxCell id="v2azdQqQb7HXVZhRQlR6-6" value="get_chat_model" style="html=1;whiteSpace=wrap;" vertex="1" parent="1">
          <mxGeometry x="150" y="270" width="110" height="50" as="geometry" />
        </mxCell>
        <mxCell id="v2azdQqQb7HXVZhRQlR6-7" value="&lt;span style=&quot;font-weight: normal;&quot;&gt;model_cfg&lt;/span&gt;" style="text;align=center;fontStyle=1;verticalAlign=middle;spacingLeft=3;spacingRight=3;strokeColor=none;rotatable=0;points=[[0,0.5],[1,0.5]];portConstraint=eastwest;html=1;" vertex="1" parent="1">
          <mxGeometry x="20" y="282" width="80" height="26" as="geometry" />
        </mxCell>
        <mxCell id="v2azdQqQb7HXVZhRQlR6-12" style="edgeStyle=orthogonalEdgeStyle;rounded=0;orthogonalLoop=1;jettySize=auto;html=1;exitX=0.5;exitY=0;exitDx=0;exitDy=0;entryX=0.5;entryY=1;entryDx=0;entryDy=0;" edge="1" parent="1" source="v2azdQqQb7HXVZhRQlR6-10" target="v2azdQqQb7HXVZhRQlR6-11">
          <mxGeometry relative="1" as="geometry" />
        </mxCell>
        <mxCell id="v2azdQqQb7HXVZhRQlR6-10" value="&lt;p style=&quot;margin:0px;margin-top:4px;text-align:center;&quot;&gt;&lt;b&gt;Assistant&lt;/b&gt;&lt;/p&gt;&lt;hr size=&quot;1&quot; style=&quot;border-style:solid;&quot;&gt;&lt;p style=&quot;margin:0px;margin-left:4px;&quot;&gt;+ _run()&lt;/p&gt;" style="verticalAlign=top;align=left;overflow=fill;html=1;whiteSpace=wrap;" vertex="1" parent="1">
          <mxGeometry x="360" y="530" width="160" height="60" as="geometry" />
        </mxCell>
        <mxCell id="v2azdQqQb7HXVZhRQlR6-13" style="edgeStyle=orthogonalEdgeStyle;rounded=0;orthogonalLoop=1;jettySize=auto;html=1;exitX=0.5;exitY=0;exitDx=0;exitDy=0;entryX=0.5;entryY=1;entryDx=0;entryDy=0;" edge="1" parent="1" source="v2azdQqQb7HXVZhRQlR6-11" target="v2azdQqQb7HXVZhRQlR6-5">
          <mxGeometry relative="1" as="geometry" />
        </mxCell>
        <mxCell id="v2azdQqQb7HXVZhRQlR6-11" value="&lt;p style=&quot;margin:0px;margin-top:4px;text-align:center;&quot;&gt;&lt;b&gt;FnCallAgent&lt;/b&gt;&lt;/p&gt;&lt;hr size=&quot;1&quot; style=&quot;border-style:solid;&quot;&gt;&lt;p style=&quot;margin:0px;margin-left:4px;&quot;&gt;+ _run()&lt;/p&gt;" style="verticalAlign=top;align=left;overflow=fill;html=1;whiteSpace=wrap;" vertex="1" parent="1">
          <mxGeometry x="360" y="450" width="160" height="60" as="geometry" />
        </mxCell>
        <mxCell id="v2azdQqQb7HXVZhRQlR6-29" value="" style="endArrow=none;dashed=1;html=1;rounded=0;" edge="1" parent="1">
          <mxGeometry width="50" height="50" relative="1" as="geometry">
            <mxPoint x="140" y="970" as="sourcePoint" />
            <mxPoint x="140" y="610" as="targetPoint" />
          </mxGeometry>
        </mxCell>
        <mxCell id="v2azdQqQb7HXVZhRQlR6-30" value="Assistant.run是Agent.run" style="text;html=1;align=left;verticalAlign=middle;whiteSpace=wrap;rounded=0;" vertex="1" parent="1">
          <mxGeometry x="150" y="630" width="140" height="30" as="geometry" />
        </mxCell>
        <mxCell id="v2azdQqQb7HXVZhRQlR6-31" value="Agent.run调用Assistant._run" style="text;html=1;align=left;verticalAlign=middle;whiteSpace=wrap;rounded=0;" vertex="1" parent="1">
          <mxGeometry x="150" y="670" width="200" height="30" as="geometry" />
        </mxCell>
        <mxCell id="v2azdQqQb7HXVZhRQlR6-32" value="Assistant._run调用FnCallAgent._run" style="text;html=1;align=left;verticalAlign=middle;whiteSpace=wrap;rounded=0;" vertex="1" parent="1">
          <mxGeometry x="150" y="710" width="205" height="30" as="geometry" />
        </mxCell>
        <mxCell id="v2azdQqQb7HXVZhRQlR6-33" value="FnCallAgent._run调用Agent._call_llm" style="text;html=1;align=left;verticalAlign=middle;whiteSpace=wrap;rounded=0;" vertex="1" parent="1">
          <mxGeometry x="150" y="750" width="205" height="30" as="geometry" />
        </mxCell>
        <mxCell id="v2azdQqQb7HXVZhRQlR6-34" value="Agent._call_llm调用Agent.llm.chat" style="text;html=1;align=left;verticalAlign=middle;whiteSpace=wrap;rounded=0;" vertex="1" parent="1">
          <mxGeometry x="150" y="790" width="205" height="30" as="geometry" />
        </mxCell>
        <mxCell id="v2azdQqQb7HXVZhRQlR6-35" value="Agent.llm在这里是TextChatAtOAI，TextChatAtOAI.chat继承BaseChatModel.chat" style="text;html=1;align=left;verticalAlign=middle;whiteSpace=wrap;rounded=0;" vertex="1" parent="1">
          <mxGeometry x="150" y="830" width="205" height="50" as="geometry" />
        </mxCell>
        <mxCell id="v2azdQqQb7HXVZhRQlR6-38" value="BaseChatModel.chat调用BaseChatModel._chat" style="text;html=1;align=left;verticalAlign=middle;whiteSpace=wrap;rounded=0;" vertex="1" parent="1">
          <mxGeometry x="150" y="890" width="260" height="30" as="geometry" />
        </mxCell>
        <mxCell id="v2azdQqQb7HXVZhRQlR6-39" value="BaseChatModel._chat调用TextChatAtOAI._chat_stream" style="text;html=1;align=left;verticalAlign=middle;whiteSpace=wrap;rounded=0;" vertex="1" parent="1">
          <mxGeometry x="150" y="930" width="300" height="30" as="geometry" />
        </mxCell>
        <mxCell id="v2azdQqQb7HXVZhRQlR6-40" value="&lt;p style=&quot;margin:0px;margin-top:4px;text-align:center;&quot;&gt;&lt;b&gt;BaseChatModel&lt;/b&gt;&lt;/p&gt;&lt;hr size=&quot;1&quot; style=&quot;border-style:solid;&quot;&gt;&lt;p style=&quot;margin:0px;margin-left:4px;&quot;&gt;+ self.llm&lt;/p&gt;&lt;hr size=&quot;1&quot; style=&quot;border-style:solid;&quot;&gt;&lt;p style=&quot;margin:0px;margin-left:4px;&quot;&gt;+ chat()&lt;/p&gt;&lt;p style=&quot;margin:0px;margin-left:4px;&quot;&gt;&lt;br&gt;&lt;/p&gt;&lt;p style=&quot;margin:0px;margin-left:4px;&quot;&gt;+ _chat()&lt;/p&gt;" style="verticalAlign=top;align=left;overflow=fill;html=1;whiteSpace=wrap;" vertex="1" parent="1">
          <mxGeometry x="550" y="260" width="160" height="120" as="geometry" />
        </mxCell>
        <mxCell id="v2azdQqQb7HXVZhRQlR6-41" style="edgeStyle=orthogonalEdgeStyle;rounded=0;orthogonalLoop=1;jettySize=auto;html=1;exitX=0.5;exitY=0;exitDx=0;exitDy=0;entryX=0.5;entryY=1;entryDx=0;entryDy=0;" edge="1" parent="1" source="v2azdQqQb7HXVZhRQlR6-42" target="v2azdQqQb7HXVZhRQlR6-44">
          <mxGeometry relative="1" as="geometry" />
        </mxCell>
        <mxCell id="v2azdQqQb7HXVZhRQlR6-42" value="&lt;p style=&quot;margin:0px;margin-top:4px;text-align:center;&quot;&gt;&lt;span style=&quot;text-align: left;&quot;&gt;&lt;b&gt;TextChatAtOAI&lt;/b&gt;&lt;/span&gt;&lt;/p&gt;&lt;hr size=&quot;1&quot; style=&quot;border-style:solid;&quot;&gt;&lt;p style=&quot;margin:0px;margin-left:4px;&quot;&gt;+ _chat_stream()&lt;/p&gt;" style="verticalAlign=top;align=left;overflow=fill;html=1;whiteSpace=wrap;" vertex="1" parent="1">
          <mxGeometry x="550" y="490" width="160" height="60" as="geometry" />
        </mxCell>
        <mxCell id="v2azdQqQb7HXVZhRQlR6-43" style="edgeStyle=orthogonalEdgeStyle;rounded=0;orthogonalLoop=1;jettySize=auto;html=1;exitX=0.5;exitY=0;exitDx=0;exitDy=0;entryX=0.5;entryY=1;entryDx=0;entryDy=0;" edge="1" parent="1" source="v2azdQqQb7HXVZhRQlR6-44" target="v2azdQqQb7HXVZhRQlR6-40">
          <mxGeometry relative="1" as="geometry" />
        </mxCell>
        <mxCell id="v2azdQqQb7HXVZhRQlR6-44" value="&lt;p style=&quot;margin:0px;margin-top:4px;text-align:center;&quot;&gt;&lt;b&gt;BaseFnCallModel&lt;/b&gt;&lt;/p&gt;&lt;hr size=&quot;1&quot; style=&quot;border-style:solid;&quot;&gt;&lt;p style=&quot;margin:0px;margin-left:4px;&quot;&gt;&lt;br&gt;&lt;/p&gt;" style="verticalAlign=top;align=left;overflow=fill;html=1;whiteSpace=wrap;" vertex="1" parent="1">
          <mxGeometry x="550" y="410" width="160" height="60" as="geometry" />
        </mxCell>
      </root>
    </mxGraphModel>
  </diagram>
</mxfile>
